# xmcd
#
# Track frame offsets:
#	150
#	20530
#	36174
#	51964
#	68644
#	80255
#	92574
#	109356
#	124309
#	140541
#	155404
#	169691
#	183169
#
# Disc length: 2628 seconds
#
# Revision: 0
# Processed by: cddbd v1.5.2PL0 Copyright (c) Steve Scherf et al.
# Submitted via: EasyCDDAExtractor 16.1.0.1
#
DISCID=a90a420d
DTITLE=Seppo Alvari - Pienemmän riesan tie
DYEAR=2009
DGENRE=Country
TTITLE0=Koira käyttäytyy omituisesti
TTITLE1=Rakkaus ei tunne pelkoa
TTITLE2=Kaatosateesta aurinkoon
TTITLE3=Tästä jos selviän
TTITLE4=Tule kotiin siitä
TTITLE5=Rokkaan ja rollaan
TTITLE6=Rakkautta on
TTITLE7=Juopon kirkko
TTITLE8=Pienemmän riesan tie
TTITLE9=Omat saappaat
TTITLE10=Kikka 22
TTITLE11=Tylsä ja laimea mies
TTITLE12=Kenties
EXTD=
EXTT0=
EXTT1=
EXTT2=
EXTT3=
EXTT4=
EXTT5=
EXTT6=
EXTT7=
EXTT8=
EXTT9=
EXTT10=
EXTT11=
EXTT12=
PLAYORDER=
